<?xml version="1.0" encoding="UTF-8" standalone="no"?>
<svg
   xmlns:dc="http://purl.org/dc/elements/1.1/"
   xmlns:cc="http://creativecommons.org/ns#"
   xmlns:rdf="http://www.w3.org/1999/02/22-rdf-syntax-ns#"
   xmlns:svg="http://www.w3.org/2000/svg"
   xmlns="http://www.w3.org/2000/svg"
   xmlns:sodipodi="http://sodipodi.sourceforge.net/DTD/sodipodi-0.dtd"
   xmlns:inkscape="http://www.inkscape.org/namespaces/inkscape"
   height="74.036003"
   width="71.955666"
   id="svg2"
   xml:space="preserve"
   enable-background="new 0 0 100 100"
   viewBox="0 0 71.955666 74.036003"
   y="0px"
   x="0px"
   version="1.1"
   inkscape:version="0.91 r13725"
   sodipodi:docname="like-q.svg"
   inkscape:export-filename="C:\Users\michaelekstrand\Documents\fatrec-web\src\assets\img\like-q.png"
   inkscape:export-xdpi="300"
   inkscape:export-ydpi="300"><sodipodi:namedview
     pagecolor="#ffffff"
     bordercolor="#666666"
     borderopacity="1"
     objecttolerance="10"
     gridtolerance="10"
     guidetolerance="10"
     inkscape:pageopacity="0"
     inkscape:pageshadow="2"
     inkscape:window-width="1920"
     inkscape:window-height="1017"
     id="namedview6"
     showgrid="false"
     inkscape:zoom="12.750553"
     inkscape:cx="30.674522"
     inkscape:cy="19.71659"
     inkscape:window-x="-8"
     inkscape:window-y="376"
     inkscape:window-maximized="1"
     inkscape:current-layer="svg2" /><metadata
     id="metadata10"><rdf:RDF><cc:Work
         rdf:about=""><dc:format>image/svg+xml</dc:format><dc:type
           rdf:resource="http://purl.org/dc/dcmitype/StillImage" /><dc:title></dc:title></cc:Work></rdf:RDF></metadata><defs
     id="defs8" /><path
     id="path4"
     d="m 71.949,44.226 c -0.093,-2.341 -1.179,-4.203 -2.037,-5.32 1.02,-2.478 1.454,-6.418 -1.908,-9.491 C 62.495,24.38 49.473,27.114 48.006,27.442 48,27.443 47.995,27.445 47.989,27.446 47.16,27.593 46.286,27.77 45.386,27.973 45.284,27.058 45.378,24.607 47.316,18.727 49.482,12.153 49.355,7.125 46.938,3.783 44.399,0.273 40.332,0 39.146,0 38,0 37.003,0.457 36.262,1.322 34.557,3.313 34.803,7.119 34.988,8.663 32.949,14.154 27.171,27.72 22.259,31.489 c -0.08,0.062 -0.156,0.13 -0.226,0.203 -1.467,1.541 -2.438,3.228 -3.077,4.677 -0.928,-0.534 -2,-0.845 -3.145,-0.845 l -9.483,0 C 2.839,35.524 0,38.363 0,41.852 l 0,25.255 c 0,3.489 2.839,6.328 6.328,6.328 l 9.483,0 c 1.435,0 2.756,-0.486 3.819,-1.295 l 3.524,0.537 c 0.014,0.002 0.028,0.004 0.041,0.006 0.422,0.055 10.439,1.345 20.714,1.137 1.852,0.144 3.587,0.216 5.197,0.216 2.778,0 5.188,-0.214 7.201,-0.642 4.709,-1.001 7.927,-2.997 9.563,-5.933 1.264,-2.269 1.234,-4.538 1.025,-5.944 4.228,-3.806 3.964,-8.377 2.887,-11.169 1.524,-1.933 2.252,-3.988 2.167,-6.122 z M 6.328,69.522 c -1.331,0 -2.414,-1.083 -2.414,-2.414 l 0,-25.255 c 0,-1.331 1.083,-2.414 2.414,-2.414 l 9.483,0 c 0.841,0 1.582,0.434 2.014,1.088 0.044,0.332 0.164,0.645 0.358,0.907 0.024,0.137 0.042,0.276 0.042,0.419 l 0,25.255 c 0,1.331 -1.083,2.414 -2.414,2.414 l -9.483,0 z M 66.052,48.681 c -0.612,0.64 -0.727,1.597 -0.268,2.354 0.27,0.462 2.498,4.617 -2.232,8.17 -0.686,0.515 -0.962,1.4 -0.673,2.208 0.029,0.087 0.706,2.159 -0.452,4.188 -1.073,1.882 -3.406,3.217 -6.934,3.966 -2.831,0.602 -6.658,0.718 -11.373,0.345 -0.065,-0.005 -0.131,-0.007 -0.196,-0.006 -9.8,0.208 -19.706,-1.037 -20.203,-1.1 l -1.752,-0.267 c 0.107,-0.461 0.169,-0.938 0.169,-1.431 l 0,-25.255 c 0,-0.67 -0.107,-1.316 -0.301,-1.923 0.293,-1.11 1.087,-3.448 2.934,-5.438 6.945,-5.497 13.77,-24.147 14.059,-24.943 0.112,-0.31 0.145,-0.643 0.094,-0.968 -0.285,-1.834 -0.147,-4.116 0.269,-4.667 0.773,0.007 3.152,0.198 4.573,2.163 1.617,2.235 1.559,6.186 -0.168,11.426 -2.586,7.847 -2.828,11.961 -0.808,13.755 0.99,0.879 2.3,0.928 3.254,0.579 0.949,-0.218 1.865,-0.404 2.725,-0.555 0.063,-0.011 0.126,-0.025 0.188,-0.042 3.298,-0.722 13.042,-2.012 16.407,1.064 2.599,2.376 0.767,5.508 0.557,5.846 -0.514,0.801 -0.367,1.865 0.334,2.509 0.017,0.016 1.716,1.599 1.785,3.755 0.045,1.406 -0.624,2.842 -1.988,4.267 z" /><path
     style="fill:none;fill-rule:evenodd;stroke:#000000;stroke-width:4;stroke-linecap:round;stroke-linejoin:miter;stroke-miterlimit:4;stroke-dasharray:none;stroke-opacity:1"
     d="m 34.822018,45.331366 c 0,0 -0.907677,-2.213106 0.08767,-5.06085 1.611057,-4.609309 5.597611,-4.877739 7.362985,-4.742647 3.530748,0.270184 6.000232,3.833279 5.725242,7.450658 -0.34381,4.522673 -6.783838,4.124413 -6.823234,9.568213 l -0.042,5.803669"
     id="path4136"
     inkscape:connector-curvature="0"
     sodipodi:nodetypes="cssssc" /><circle
     style="fill-opacity:1;stroke-width:4;stroke-linecap:round;stroke-miterlimit:4;stroke-dasharray:none"
     id="path4138"
     cx="40.978699"
     cy="64.42849"
     r="2" /></svg>